<svg xmlns="http://www.w3.org/2000/svg" width="790" height="183" viewBox="0 0 790 183" font-family="'Segoe UI', Helvetica, Arial, sans-serif">
  <style>
    .bg { fill: #0d1117; }
    .cell { opacity: 0; transform-origin: center; animation: reveal 0.5s ease-out forwards; }
    @keyframes reveal {
      0% { opacity: 0; transform: translate(-6px,-6px) scale(0.4); }
      100% { opacity: 1; transform: translate(0,0) scale(1); }
    }
    .month { fill: #8b949e; font-size: 11px; }
    .footer { fill: #8b949e; font-size: 12px; }
    .legend-label { fill: #8b949e; font-size: 10px; }
    .title { fill: #58a6ff; font-size: 12px; font-family: 'Fira Code', monospace; }
  </style>
  <rect class="bg" x="0" y="0" width="790" height="183" rx="8"/>
  <text x="28" y="16" class="title">mrpandeyshubham@github ~ $ ./contributions.sh</text>
  <text x="42" y="20" class="month">Aug</text>
<text x="112" y="20" class="month">Sep</text>
<text x="168" y="20" class="month">Oct</text>
<text x="224" y="20" class="month">Nov</text>
<text x="294" y="20" class="month">Dec</text>
<text x="350" y="20" class="month">Jan</text>
<text x="420" y="20" class="month">Feb</text>
<text x="476" y="20" class="month">Mar</text>
<text x="532" y="20" class="month">Apr</text>
<text x="588" y="20" class="month">May</text>
<text x="658" y="20" class="month">Jun</text>
<text x="714" y="20" class="month">Jul</text>
  <rect class="cell" x="28" y="30" width="11" height="11" rx="2.5" ry="2.5" fill="#161b22" style="animation-delay:0.000s" />
<rect class="cell" x="28" y="44" width="11" height="11" rx="2.5" ry="2.5" fill="#161b22" style="animation-delay:0.002s" />
<rect class="cell" x="28" y="58" width="11" height="11" rx="2.5" ry="2.5" fill="#161b22" style="animation-delay:0.004s" />
<rect class="cell" x="28" y="72" width="11" height="11" rx="2.5" ry="2.5" fill="#161b22" style="animation-delay:0.007s" />
<rect class="cell" x="28" y="86" width="11" height="11" rx="2.5" ry="2.5" fill="#161b22" style="animation-delay:0.009s" />
<rect class="cell" x="28" y="100" width="11" height="11" rx="2.5" ry="2.5" fill="#161b22" style="animation-delay:0.011s" />
<rect class="cell" x="28" y="114" width="11" height="11" rx="2.5" ry="2.5" fill="#161b22" style="animation-delay:0.013s" />
<rect class="cell" x="42" y="30" width="11" height="11" rx="2.5" ry="2.5" fill="#161b22" style="animation-delay:0.015s" />
<rect class="cell" x="42" y="44" width="11" height="11" rx="2.5" ry="2.5" fill="#161b22" style="animation-delay:0.018s" />
<rect class="cell" x="42" y="58" width="11" height="11" rx="2.5" ry="2.5" fill="#161b22" style="animation-delay:0.020s" />
<rect class="cell" x="42" y="72" width="11" height="11" rx="2.5" ry="2.5" fill="#161b22" style="animation-delay:0.022s" />
<rect class="cell" x="42" y="86" width="11" height="11" rx="2.5" ry="2.5" fill="#161b22" style="animation-delay:0.024s" />
<rect class="cell" x="42" y="100" width="11" height="11" rx="2.5" ry="2.5" fill="#161b22" style="animation-delay:0.026s" />
<rect class="cell" x="42" y="114" width="11" height="11" rx="2.5" ry="2.5" fill="#161b22" style="animation-delay:0.029s" />
<rect class="cell" x="56" y="30" width="11" height="11" rx="2.5" ry="2.5" fill="#006d32" style="animation-delay:0.031s" />
<rect class="cell" x="56" y="44" width="11" height="11" rx="2.5" ry="2.5" fill="#161b22" style="animation-delay:0.033s" />
<rect class="cell" x="56" y="58" width="11" height="11" rx="2.5" ry="2.5" fill="#161b22" style="animation-delay:0.035s" />
<rect class="cell" x="56" y="72" width="11" height="11" rx="2.5" ry="2.5" fill="#161b22" style="animation-delay:0.037s" />
<rect class="cell" x="56" y="86" width="11" height="11" rx="2.5" ry="2.5" fill="#161b22" style="animation-delay:0.040s" />
<rect class="cell" x="56" y="100" width="11" height="11" rx="2.5" ry="2.5" fill="#161b22" style="animation-delay:0.042s" />
<rect class="cell" x="56" y="114" width="11" height="11" rx="2.5" ry="2.5" fill="#161b22" style="animation-delay:0.044s" />
<rect class="cell" x="70" y="30" width="11" height="11" rx="2.5" ry="2.5" fill="#161b22" style="animation-delay:0.046s" />
<rect class="cell" x="70" y="44" width="11" height="11" rx="2.5" ry="2.5" fill="#161b22" style="animation-delay:0.048s" />
<rect class="cell" x="70" y="58" width="11" height="11" rx="2.5" ry="2.5" fill="#161b22" style="animation-delay:0.051s" />
<rect class="cell" x="70" y="72" width="11" height="11" rx="2.5" ry="2.5" fill="#161b22" style="animation-delay:0.053s" />
<rect class="cell" x="70" y="86" width="11" height="11" rx="2.5" ry="2.5" fill="#161b22" style="animation-delay:0.055s" />
<rect class="cell" x="70" y="100" width="11" height="11" rx="2.5" ry="2.5" fill="#161b22" style="animation-delay:0.057s" />
<rect class="cell" x="70" y="114" width="11" height="11" rx="2.5" ry="2.5" fill="#161b22" style="animation-delay:0.059s" />
<rect class="cell" x="84" y="30" width="11" height="11" rx="2.5" ry="2.5" fill="#161b22" style="animation-delay:0.062s" />
<rect class="cell" x="84" y="44" width="11" height="11" rx="2.5" ry="2.5" fill="#161b22" style="animation-delay:0.064s" />
<rect class="cell" x="84" y="58" width="11" height="11" rx="2.5" ry="2.5" fill="#161b22" style="animation-delay:0.066s" />
<rect class="cell" x="84" y="72" width="11" height="11" rx="2.5" ry="2.5" fill="#161b22" style="animation-delay:0.068s" />
<rect class="cell" x="84" y="86" width="11" height="11" rx="2.5" ry="2.5" fill="#161b22" style="animation-delay:0.070s" />
<rect class="cell" x="84" y="100" width="11" height="11" rx="2.5" ry="2.5" fill="#161b22" style="animation-delay:0.073s" />
<rect class="cell" x="84" y="114" width="11" height="11" rx="2.5" ry="2.5" fill="#161b22" style="animation-delay:0.075s" />
<rect class="cell" x="98" y="30" width="11" height="11" rx="2.5" ry="2.5" fill="#161b22" style="animation-delay:0.077s" />
<rect class="cell" x="98" y="44" width="11" height="11" rx="2.5" ry="2.5" fill="#161b22" style="animation-delay:0.079s" />
<rect class="cell" x="98" y="58" width="11" height="11" rx="2.5" ry="2.5" fill="#161b22" style="animation-delay:0.081s" />
<rect class="cell" x="98" y="72" width="11" height="11" rx="2.5" ry="2.5" fill="#161b22" style="animation-delay:0.084s" />
<rect class="cell" x="98" y="86" width="11" height="11" rx="2.5" ry="2.5" fill="#39d353" style="animation-delay:0.086s" />
<rect class="cell" x="98" y="100" width="11" height="11" rx="2.5" ry="2.5" fill="#161b22" style="animation-delay:0.088s" />
<rect class="cell" x="98" y="114" width="11" height="11" rx="2.5" ry="2.5" fill="#161b22" style="animation-delay:0.090s" />
<rect class="cell" x="112" y="30" width="11" height="11" rx="2.5" ry="2.5" fill="#161b22" style="animation-delay:0.092s" />
<rect class="cell" x="112" y="44" width="11" height="11" rx="2.5" ry="2.5" fill="#161b22" style="animation-delay:0.095s" />
<rect class="cell" x="112" y="58" width="11" height="11" rx="2.5" ry="2.5" fill="#161b22" style="animation-delay:0.097s" />
<rect class="cell" x="112" y="72" width="11" height="11" rx="2.5" ry="2.5" fill="#161b22" style="animation-delay:0.099s" />
<rect class="cell" x="112" y="86" width="11" height="11" rx="2.5" ry="2.5" fill="#161b22" style="animation-delay:0.101s" />
<rect class="cell" x="112" y="100" width="11" height="11" rx="2.5" ry="2.5" fill="#161b22" style="animation-delay:0.103s" />
<rect class="cell" x="112" y="114" width="11" height="11" rx="2.5" ry="2.5" fill="#161b22" style="animation-delay:0.106s" />
<rect class="cell" x="126" y="30" width="11" height="11" rx="2.5" ry="2.5" fill="#161b22" style="animation-delay:0.108s" />
<rect class="cell" x="126" y="44" width="11" height="11" rx="2.5" ry="2.5" fill="#161b22" style="animation-delay:0.110s" />
<rect class="cell" x="126" y="58" width="11" height="11" rx="2.5" ry="2.5" fill="#161b22" style="animation-delay:0.112s" />
<rect class="cell" x="126" y="72" width="11" height="11" rx="2.5" ry="2.5" fill="#161b22" style="animation-delay:0.114s" />
<rect class="cell" x="126" y="86" width="11" height="11" rx="2.5" ry="2.5" fill="#161b22" style="animation-delay:0.117s" />
<rect class="cell" x="126" y="100" width="11" height="11" rx="2.5" ry="2.5" fill="#161b22" style="animation-delay:0.119s" />
<rect class="cell" x="126" y="114" width="11" height="11" rx="2.5" ry="2.5" fill="#161b22" style="animation-delay:0.121s" />
<rect class="cell" x="140" y="30" width="11" height="11" rx="2.5" ry="2.5" fill="#161b22" style="animation-delay:0.123s" />
<rect class="cell" x="140" y="44" width="11" height="11" rx="2.5" ry="2.5" fill="#161b22" style="animation-delay:0.125s" />
<rect class="cell" x="140" y="58" width="11" height="11" rx="2.5" ry="2.5" fill="#161b22" style="animation-delay:0.128s" />
<rect class="cell" x="140" y="72" width="11" height="11" rx="2.5" ry="2.5" fill="#161b22" style="animation-delay:0.130s" />
<rect class="cell" x="140" y="86" width="11" height="11" rx="2.5" ry="2.5" fill="#161b22" style="animation-delay:0.132s" />
<rect class="cell" x="140" y="100" width="11" height="11" rx="2.5" ry="2.5" fill="#161b22" style="animation-delay:0.134s" />
<rect class="cell" x="140" y="114" width="11" height="11" rx="2.5" ry="2.5" fill="#161b22" style="animation-delay:0.136s" />
<rect class="cell" x="154" y="30" width="11" height="11" rx="2.5" ry="2.5" fill="#161b22" style="animation-delay:0.139s" />
<rect class="cell" x="154" y="44" width="11" height="11" rx="2.5" ry="2.5" fill="#161b22" style="animation-delay:0.141s" />
<rect class="cell" x="154" y="58" width="11" height="11" rx="2.5" ry="2.5" fill="#161b22" style="animation-delay:0.143s" />
<rect class="cell" x="154" y="72" width="11" height="11" rx="2.5" ry="2.5" fill="#161b22" style="animation-delay:0.145s" />
<rect class="cell" x="154" y="86" width="11" height="11" rx="2.5" ry="2.5" fill="#161b22" style="animation-delay:0.147s" />
<rect class="cell" x="154" y="100" width="11" height="11" rx="2.5" ry="2.5" fill="#161b22" style="animation-delay:0.150s" />
<rect class="cell" x="154" y="114" width="11" height="11" rx="2.5" ry="2.5" fill="#161b22" style="animation-delay:0.152s" />
<rect class="cell" x="168" y="30" width="11" height="11" rx="2.5" ry="2.5" fill="#161b22" style="animation-delay:0.154s" />
<rect class="cell" x="168" y="44" width="11" height="11" rx="2.5" ry="2.5" fill="#161b22" style="animation-delay:0.156s" />
<rect class="cell" x="168" y="58" width="11" height="11" rx="2.5" ry="2.5" fill="#161b22" style="animation-delay:0.158s" />
<rect class="cell" x="168" y="72" width="11" height="11" rx="2.5" ry="2.5" fill="#161b22" style="animation-delay:0.161s" />
<rect class="cell" x="168" y="86" width="11" height="11" rx="2.5" ry="2.5" fill="#161b22" style="animation-delay:0.163s" />
<rect class="cell" x="168" y="100" width="11" height="11" rx="2.5" ry="2.5" fill="#161b22" style="animation-delay:0.165s" />
<rect class="cell" x="168" y="114" width="11" height="11" rx="2.5" ry="2.5" fill="#161b22" style="animation-delay:0.167s" />
<rect class="cell" x="182" y="30" width="11" height="11" rx="2.5" ry="2.5" fill="#161b22" style="animation-delay:0.169s" />
<rect class="cell" x="182" y="44" width="11" height="11" rx="2.5" ry="2.5" fill="#161b22" style="animation-delay:0.172s" />
<rect class="cell" x="182" y="58" width="11" height="11" rx="2.5" ry="2.5" fill="#161b22" style="animation-delay:0.174s" />
<rect class="cell" x="182" y="72" width="11" height="11" rx="2.5" ry="2.5" fill="#161b22" style="animation-delay:0.176s" />
<rect class="cell" x="182" y="86" width="11" height="11" rx="2.5" ry="2.5" fill="#161b22" style="animation-delay:0.178s" />
<rect class="cell" x="182" y="100" width="11" height="11" rx="2.5" ry="2.5" fill="#161b22" style="animation-delay:0.180s" />
<rect class="cell" x="182" y="114" width="11" height="11" rx="2.5" ry="2.5" fill="#161b22" style="animation-delay:0.183s" />
<rect class="cell" x="196" y="30" width="11" height="11" rx="2.5" ry="2.5" fill="#161b22" style="animation-delay:0.185s" />
<rect class="cell" x="196" y="44" width="11" height="11" rx="2.5" ry="2.5" fill="#161b22" style="animation-delay:0.187s" />
<rect class="cell" x="196" y="58" width="11" height="11" rx="2.5" ry="2.5" fill="#161b22" style="animation-delay:0.189s" />
<rect class="cell" x="196" y="72" width="11" height="11" rx="2.5" ry="2.5" fill="#161b22" style="animation-delay:0.191s" />
<rect class="cell" x="196" y="86" width="11" height="11" rx="2.5" ry="2.5" fill="#161b22" style="animation-delay:0.194s" />
<rect class="cell" x="196" y="100" width="11" height="11" rx="2.5" ry="2.5" fill="#161b22" style="animation-delay:0.196s" />
<rect class="cell" x="196" y="114" width="11" height="11" rx="2.5" ry="2.5" fill="#161b22" style="animation-delay:0.198s" />
<rect class="cell" x="210" y="30" width="11" height="11" rx="2.5" ry="2.5" fill="#161b22" style="animation-delay:0.200s" />
<rect class="cell" x="210" y="44" width="11" height="11" rx="2.5" ry="2.5" fill="#161b22" style="animation-delay:0.202s" />
<rect class="cell" x="210" y="58" width="11" height="11" rx="2.5" ry="2.5" fill="#161b22" style="animation-delay:0.205s" />
<rect class="cell" x="210" y="72" width="11" height="11" rx="2.5" ry="2.5" fill="#161b22" style="animation-delay:0.207s" />
<rect class="cell" x="210" y="86" width="11" height="11" rx="2.5" ry="2.5" fill="#161b22" style="animation-delay:0.209s" />
<rect class="cell" x="210" y="100" width="11" height="11" rx="2.5" ry="2.5" fill="#161b22" style="animation-delay:0.211s" />
<rect class="cell" x="210" y="114" width="11" height="11" rx="2.5" ry="2.5" fill="#161b22" style="animation-delay:0.213s" />
<rect class="cell" x="224" y="30" width="11" height="11" rx="2.5" ry="2.5" fill="#161b22" style="animation-delay:0.216s" />
<rect class="cell" x="224" y="44" width="11" height="11" rx="2.5" ry="2.5" fill="#161b22" style="animation-delay:0.218s" />
<rect class="cell" x="224" y="58" width="11" height="11" rx="2.5" ry="2.5" fill="#161b22" style="animation-delay:0.220s" />
<rect class="cell" x="224" y="72" width="11" height="11" rx="2.5" ry="2.5" fill="#161b22" style="animation-delay:0.222s" />
<rect class="cell" x="224" y="86" width="11" height="11" rx="2.5" ry="2.5" fill="#161b22" style="animation-delay:0.224s" />
<rect class="cell" x="224" y="100" width="11" height="11" rx="2.5" ry="2.5" fill="#161b22" style="animation-delay:0.227s" />
<rect class="cell" x="224" y="114" width="11" height="11" rx="2.5" ry="2.5" fill="#161b22" style="animation-delay:0.229s" />
<rect class="cell" x="238" y="30" width="11" height="11" rx="2.5" ry="2.5" fill="#161b22" style="animation-delay:0.231s" />
<rect class="cell" x="238" y="44" width="11" height="11" rx="2.5" ry="2.5" fill="#161b22" style="animation-delay:0.233s" />
<rect class="cell" x="238" y="58" width="11" height="11" rx="2.5" ry="2.5" fill="#161b22" style="animation-delay:0.235s" />
<rect class="cell" x="238" y="72" width="11" height="11" rx="2.5" ry="2.5" fill="#161b22" style="animation-delay:0.238s" />
<rect class="cell" x="238" y="86" width="11" height="11" rx="2.5" ry="2.5" fill="#161b22" style="animation-delay:0.240s" />
<rect class="cell" x="238" y="100" width="11" height="11" rx="2.5" ry="2.5" fill="#161b22" style="animation-delay:0.242s" />
<rect class="cell" x="238" y="114" width="11" height="11" rx="2.5" ry="2.5" fill="#161b22" style="animation-delay:0.244s" />
<rect class="cell" x="252" y="30" width="11" height="11" rx="2.5" ry="2.5" fill="#161b22" style="animation-delay:0.246s" />
<rect class="cell" x="252" y="44" width="11" height="11" rx="2.5" ry="2.5" fill="#161b22" style="animation-delay:0.249s" />
<rect class="cell" x="252" y="58" width="11" height="11" rx="2.5" ry="2.5" fill="#161b22" style="animation-delay:0.251s" />
<rect class="cell" x="252" y="72" width="11" height="11" rx="2.5" ry="2.5" fill="#161b22" style="animation-delay:0.253s" />
<rect class="cell" x="252" y="86" width="11" height="11" rx="2.5" ry="2.5" fill="#161b22" style="animation-delay:0.255s" />
<rect class="cell" x="252" y="100" width="11" height="11" rx="2.5" ry="2.5" fill="#161b22" style="animation-delay:0.257s" />
<rect class="cell" x="252" y="114" width="11" height="11" rx="2.5" ry="2.5" fill="#161b22" style="animation-delay:0.260s" />
<rect class="cell" x="266" y="30" width="11" height="11" rx="2.5" ry="2.5" fill="#161b22" style="animation-delay:0.262s" />
<rect class="cell" x="266" y="44" width="11" height="11" rx="2.5" ry="2.5" fill="#161b22" style="animation-delay:0.264s" />
<rect class="cell" x="266" y="58" width="11" height="11" rx="2.5" ry="2.5" fill="#161b22" style="animation-delay:0.266s" />
<rect class="cell" x="266" y="72" width="11" height="11" rx="2.5" ry="2.5" fill="#161b22" style="animation-delay:0.268s" />
<rect class="cell" x="266" y="86" width="11" height="11" rx="2.5" ry="2.5" fill="#161b22" style="animation-delay:0.271s" />
<rect class="cell" x="266" y="100" width="11" height="11" rx="2.5" ry="2.5" fill="#161b22" style="animation-delay:0.273s" />
<rect class="cell" x="266" y="114" width="11" height="11" rx="2.5" ry="2.5" fill="#161b22" style="animation-delay:0.275s" />
<rect class="cell" x="280" y="30" width="11" height="11" rx="2.5" ry="2.5" fill="#161b22" style="animation-delay:0.277s" />
<rect class="cell" x="280" y="44" width="11" height="11" rx="2.5" ry="2.5" fill="#161b22" style="animation-delay:0.279s" />
<rect class="cell" x="280" y="58" width="11" height="11" rx="2.5" ry="2.5" fill="#161b22" style="animation-delay:0.282s" />
<rect class="cell" x="280" y="72" width="11" height="11" rx="2.5" ry="2.5" fill="#161b22" style="animation-delay:0.284s" />
<rect class="cell" x="280" y="86" width="11" height="11" rx="2.5" ry="2.5" fill="#161b22" style="animation-delay:0.286s" />
<rect class="cell" x="280" y="100" width="11" height="11" rx="2.5" ry="2.5" fill="#161b22" style="animation-delay:0.288s" />
<rect class="cell" x="280" y="114" width="11" height="11" rx="2.5" ry="2.5" fill="#161b22" style="animation-delay:0.290s" />
<rect class="cell" x="294" y="30" width="11" height="11" rx="2.5" ry="2.5" fill="#161b22" style="animation-delay:0.293s" />
<rect class="cell" x="294" y="44" width="11" height="11" rx="2.5" ry="2.5" fill="#161b22" style="animation-delay:0.295s" />
<rect class="cell" x="294" y="58" width="11" height="11" rx="2.5" ry="2.5" fill="#161b22" style="animation-delay:0.297s" />
<rect class="cell" x="294" y="72" width="11" height="11" rx="2.5" ry="2.5" fill="#161b22" style="animation-delay:0.299s" />
<rect class="cell" x="294" y="86" width="11" height="11" rx="2.5" ry="2.5" fill="#161b22" style="animation-delay:0.301s" />
<rect class="cell" x="294" y="100" width="11" height="11" rx="2.5" ry="2.5" fill="#161b22" style="animation-delay:0.304s" />
<rect class="cell" x="294" y="114" width="11" height="11" rx="2.5" ry="2.5" fill="#161b22" style="animation-delay:0.306s" />
<rect class="cell" x="308" y="30" width="11" height="11" rx="2.5" ry="2.5" fill="#161b22" style="animation-delay:0.308s" />
<rect class="cell" x="308" y="44" width="11" height="11" rx="2.5" ry="2.5" fill="#161b22" style="animation-delay:0.310s" />
<rect class="cell" x="308" y="58" width="11" height="11" rx="2.5" ry="2.5" fill="#161b22" style="animation-delay:0.312s" />
<rect class="cell" x="308" y="72" width="11" height="11" rx="2.5" ry="2.5" fill="#161b22" style="animation-delay:0.315s" />
<rect class="cell" x="308" y="86" width="11" height="11" rx="2.5" ry="2.5" fill="#161b22" style="animation-delay:0.317s" />
<rect class="cell" x="308" y="100" width="11" height="11" rx="2.5" ry="2.5" fill="#161b22" style="animation-delay:0.319s" />
<rect class="cell" x="308" y="114" width="11" height="11" rx="2.5" ry="2.5" fill="#161b22" style="animation-delay:0.321s" />
<rect class="cell" x="322" y="30" width="11" height="11" rx="2.5" ry="2.5" fill="#161b22" style="animation-delay:0.323s" />
<rect class="cell" x="322" y="44" width="11" height="11" rx="2.5" ry="2.5" fill="#161b22" style="animation-delay:0.326s" />
<rect class="cell" x="322" y="58" width="11" height="11" rx="2.5" ry="2.5" fill="#161b22" style="animation-delay:0.328s" />
<rect class="cell" x="322" y="72" width="11" height="11" rx="2.5" ry="2.5" fill="#161b22" style="animation-delay:0.330s" />
<rect class="cell" x="322" y="86" width="11" height="11" rx="2.5" ry="2.5" fill="#161b22" style="animation-delay:0.332s" />
<rect class="cell" x="322" y="100" width="11" height="11" rx="2.5" ry="2.5" fill="#161b22" style="animation-delay:0.334s" />
<rect class="cell" x="322" y="114" width="11" height="11" rx="2.5" ry="2.5" fill="#161b22" style="animation-delay:0.337s" />
<rect class="cell" x="336" y="30" width="11" height="11" rx="2.5" ry="2.5" fill="#161b22" style="animation-delay:0.339s" />
<rect class="cell" x="336" y="44" width="11" height="11" rx="2.5" ry="2.5" fill="#161b22" style="animation-delay:0.341s" />
<rect class="cell" x="336" y="58" width="11" height="11" rx="2.5" ry="2.5" fill="#161b22" style="animation-delay:0.343s" />
<rect class="cell" x="336" y="72" width="11" height="11" rx="2.5" ry="2.5" fill="#161b22" style="animation-delay:0.345s" />
<rect class="cell" x="336" y="86" width="11" height="11" rx="2.5" ry="2.5" fill="#161b22" style="animation-delay:0.348s" />
<rect class="cell" x="336" y="100" width="11" height="11" rx="2.5" ry="2.5" fill="#161b22" style="animation-delay:0.350s" />
<rect class="cell" x="336" y="114" width="11" height="11" rx="2.5" ry="2.5" fill="#161b22" style="animation-delay:0.352s" />
<rect class="cell" x="350" y="30" width="11" height="11" rx="2.5" ry="2.5" fill="#161b22" style="animation-delay:0.354s" />
<rect class="cell" x="350" y="44" width="11" height="11" rx="2.5" ry="2.5" fill="#161b22" style="animation-delay:0.356s" />
<rect class="cell" x="350" y="58" width="11" height="11" rx="2.5" ry="2.5" fill="#161b22" style="animation-delay:0.359s" />
<rect class="cell" x="350" y="72" width="11" height="11" rx="2.5" ry="2.5" fill="#161b22" style="animation-delay:0.361s" />
<rect class="cell" x="350" y="86" width="11" height="11" rx="2.5" ry="2.5" fill="#161b22" style="animation-delay:0.363s" />
<rect class="cell" x="350" y="100" width="11" height="11" rx="2.5" ry="2.5" fill="#161b22" style="animation-delay:0.365s" />
<rect class="cell" x="350" y="114" width="11" height="11" rx="2.5" ry="2.5" fill="#161b22" style="animation-delay:0.367s" />
<rect class="cell" x="364" y="30" width="11" height="11" rx="2.5" ry="2.5" fill="#161b22" style="animation-delay:0.370s" />
<rect class="cell" x="364" y="44" width="11" height="11" rx="2.5" ry="2.5" fill="#161b22" style="animation-delay:0.372s" />
<rect class="cell" x="364" y="58" width="11" height="11" rx="2.5" ry="2.5" fill="#161b22" style="animation-delay:0.374s" />
<rect class="cell" x="364" y="72" width="11" height="11" rx="2.5" ry="2.5" fill="#161b22" style="animation-delay:0.376s" />
<rect class="cell" x="364" y="86" width="11" height="11" rx="2.5" ry="2.5" fill="#161b22" style="animation-delay:0.378s" />
<rect class="cell" x="364" y="100" width="11" height="11" rx="2.5" ry="2.5" fill="#161b22" style="animation-delay:0.381s" />
<rect class="cell" x="364" y="114" width="11" height="11" rx="2.5" ry="2.5" fill="#161b22" style="animation-delay:0.383s" />
<rect class="cell" x="378" y="30" width="11" height="11" rx="2.5" ry="2.5" fill="#161b22" style="animation-delay:0.385s" />
<rect class="cell" x="378" y="44" width="11" height="11" rx="2.5" ry="2.5" fill="#161b22" style="animation-delay:0.387s" />
<rect class="cell" x="378" y="58" width="11" height="11" rx="2.5" ry="2.5" fill="#161b22" style="animation-delay:0.389s" />
<rect class="cell" x="378" y="72" width="11" height="11" rx="2.5" ry="2.5" fill="#161b22" style="animation-delay:0.392s" />
<rect class="cell" x="378" y="86" width="11" height="11" rx="2.5" ry="2.5" fill="#161b22" style="animation-delay:0.394s" />
<rect class="cell" x="378" y="100" width="11" height="11" rx="2.5" ry="2.5" fill="#161b22" style="animation-delay:0.396s" />
<rect class="cell" x="378" y="114" width="11" height="11" rx="2.5" ry="2.5" fill="#161b22" style="animation-delay:0.398s" />
<rect class="cell" x="392" y="30" width="11" height="11" rx="2.5" ry="2.5" fill="#161b22" style="animation-delay:0.400s" />
<rect class="cell" x="392" y="44" width="11" height="11" rx="2.5" ry="2.5" fill="#161b22" style="animation-delay:0.403s" />
<rect class="cell" x="392" y="58" width="11" height="11" rx="2.5" ry="2.5" fill="#161b22" style="animation-delay:0.405s" />
<rect class="cell" x="392" y="72" width="11" height="11" rx="2.5" ry="2.5" fill="#161b22" style="animation-delay:0.407s" />
<rect class="cell" x="392" y="86" width="11" height="11" rx="2.5" ry="2.5" fill="#161b22" style="animation-delay:0.409s" />
<rect class="cell" x="392" y="100" width="11" height="11" rx="2.5" ry="2.5" fill="#161b22" style="animation-delay:0.411s" />
<rect class="cell" x="392" y="114" width="11" height="11" rx="2.5" ry="2.5" fill="#161b22" style="animation-delay:0.414s" />
<rect class="cell" x="406" y="30" width="11" height="11" rx="2.5" ry="2.5" fill="#161b22" style="animation-delay:0.416s" />
<rect class="cell" x="406" y="44" width="11" height="11" rx="2.5" ry="2.5" fill="#161b22" style="animation-delay:0.418s" />
<rect class="cell" x="406" y="58" width="11" height="11" rx="2.5" ry="2.5" fill="#161b22" style="animation-delay:0.420s" />
<rect class="cell" x="406" y="72" width="11" height="11" rx="2.5" ry="2.5" fill="#161b22" style="animation-delay:0.422s" />
<rect class="cell" x="406" y="86" width="11" height="11" rx="2.5" ry="2.5" fill="#161b22" style="animation-delay:0.425s" />
<rect class="cell" x="406" y="100" width="11" height="11" rx="2.5" ry="2.5" fill="#161b22" style="animation-delay:0.427s" />
<rect class="cell" x="406" y="114" width="11" height="11" rx="2.5" ry="2.5" fill="#161b22" style="animation-delay:0.429s" />
<rect class="cell" x="420" y="30" width="11" height="11" rx="2.5" ry="2.5" fill="#161b22" style="animation-delay:0.431s" />
<rect class="cell" x="420" y="44" width="11" height="11" rx="2.5" ry="2.5" fill="#161b22" style="animation-delay:0.433s" />
<rect class="cell" x="420" y="58" width="11" height="11" rx="2.5" ry="2.5" fill="#161b22" style="animation-delay:0.436s" />
<rect class="cell" x="420" y="72" width="11" height="11" rx="2.5" ry="2.5" fill="#161b22" style="animation-delay:0.438s" />
<rect class="cell" x="420" y="86" width="11" height="11" rx="2.5" ry="2.5" fill="#161b22" style="animation-delay:0.440s" />
<rect class="cell" x="420" y="100" width="11" height="11" rx="2.5" ry="2.5" fill="#161b22" style="animation-delay:0.442s" />
<rect class="cell" x="420" y="114" width="11" height="11" rx="2.5" ry="2.5" fill="#161b22" style="animation-delay:0.444s" />
<rect class="cell" x="434" y="30" width="11" height="11" rx="2.5" ry="2.5" fill="#161b22" style="animation-delay:0.447s" />
<rect class="cell" x="434" y="44" width="11" height="11" rx="2.5" ry="2.5" fill="#161b22" style="animation-delay:0.449s" />
<rect class="cell" x="434" y="58" width="11" height="11" rx="2.5" ry="2.5" fill="#161b22" style="animation-delay:0.451s" />
<rect class="cell" x="434" y="72" width="11" height="11" rx="2.5" ry="2.5" fill="#161b22" style="animation-delay:0.453s" />
<rect class="cell" x="434" y="86" width="11" height="11" rx="2.5" ry="2.5" fill="#161b22" style="animation-delay:0.455s" />
<rect class="cell" x="434" y="100" width="11" height="11" rx="2.5" ry="2.5" fill="#161b22" style="animation-delay:0.458s" />
<rect class="cell" x="434" y="114" width="11" height="11" rx="2.5" ry="2.5" fill="#161b22" style="animation-delay:0.460s" />
<rect class="cell" x="448" y="30" width="11" height="11" rx="2.5" ry="2.5" fill="#161b22" style="animation-delay:0.462s" />
<rect class="cell" x="448" y="44" width="11" height="11" rx="2.5" ry="2.5" fill="#161b22" style="animation-delay:0.464s" />
<rect class="cell" x="448" y="58" width="11" height="11" rx="2.5" ry="2.5" fill="#161b22" style="animation-delay:0.466s" />
<rect class="cell" x="448" y="72" width="11" height="11" rx="2.5" ry="2.5" fill="#161b22" style="animation-delay:0.469s" />
<rect class="cell" x="448" y="86" width="11" height="11" rx="2.5" ry="2.5" fill="#161b22" style="animation-delay:0.471s" />
<rect class="cell" x="448" y="100" width="11" height="11" rx="2.5" ry="2.5" fill="#161b22" style="animation-delay:0.473s" />
<rect class="cell" x="448" y="114" width="11" height="11" rx="2.5" ry="2.5" fill="#161b22" style="animation-delay:0.475s" />
<rect class="cell" x="462" y="30" width="11" height="11" rx="2.5" ry="2.5" fill="#161b22" style="animation-delay:0.477s" />
<rect class="cell" x="462" y="44" width="11" height="11" rx="2.5" ry="2.5" fill="#161b22" style="animation-delay:0.480s" />
<rect class="cell" x="462" y="58" width="11" height="11" rx="2.5" ry="2.5" fill="#161b22" style="animation-delay:0.482s" />
<rect class="cell" x="462" y="72" width="11" height="11" rx="2.5" ry="2.5" fill="#161b22" style="animation-delay:0.484s" />
<rect class="cell" x="462" y="86" width="11" height="11" rx="2.5" ry="2.5" fill="#161b22" style="animation-delay:0.486s" />
<rect class="cell" x="462" y="100" width="11" height="11" rx="2.5" ry="2.5" fill="#161b22" style="animation-delay:0.488s" />
<rect class="cell" x="462" y="114" width="11" height="11" rx="2.5" ry="2.5" fill="#161b22" style="animation-delay:0.491s" />
<rect class="cell" x="476" y="30" width="11" height="11" rx="2.5" ry="2.5" fill="#161b22" style="animation-delay:0.493s" />
<rect class="cell" x="476" y="44" width="11" height="11" rx="2.5" ry="2.5" fill="#161b22" style="animation-delay:0.495s" />
<rect class="cell" x="476" y="58" width="11" height="11" rx="2.5" ry="2.5" fill="#161b22" style="animation-delay:0.497s" />
<rect class="cell" x="476" y="72" width="11" height="11" rx="2.5" ry="2.5" fill="#161b22" style="animation-delay:0.499s" />
<rect class="cell" x="476" y="86" width="11" height="11" rx="2.5" ry="2.5" fill="#161b22" style="animation-delay:0.502s" />
<rect class="cell" x="476" y="100" width="11" height="11" rx="2.5" ry="2.5" fill="#161b22" style="animation-delay:0.504s" />
<rect class="cell" x="476" y="114" width="11" height="11" rx="2.5" ry="2.5" fill="#161b22" style="animation-delay:0.506s" />
<rect class="cell" x="490" y="30" width="11" height="11" rx="2.5" ry="2.5" fill="#161b22" style="animation-delay:0.508s" />
<rect class="cell" x="490" y="44" width="11" height="11" rx="2.5" ry="2.5" fill="#161b22" style="animation-delay:0.510s" />
<rect class="cell" x="490" y="58" width="11" height="11" rx="2.5" ry="2.5" fill="#161b22" style="animation-delay:0.513s" />
<rect class="cell" x="490" y="72" width="11" height="11" rx="2.5" ry="2.5" fill="#161b22" style="animation-delay:0.515s" />
<rect class="cell" x="490" y="86" width="11" height="11" rx="2.5" ry="2.5" fill="#161b22" style="animation-delay:0.517s" />
<rect class="cell" x="490" y="100" width="11" height="11" rx="2.5" ry="2.5" fill="#161b22" style="animation-delay:0.519s" />
<rect class="cell" x="490" y="114" width="11" height="11" rx="2.5" ry="2.5" fill="#161b22" style="animation-delay:0.521s" />
<rect class="cell" x="504" y="30" width="11" height="11" rx="2.5" ry="2.5" fill="#161b22" style="animation-delay:0.524s" />
<rect class="cell" x="504" y="44" width="11" height="11" rx="2.5" ry="2.5" fill="#161b22" style="animation-delay:0.526s" />
<rect class="cell" x="504" y="58" width="11" height="11" rx="2.5" ry="2.5" fill="#161b22" style="animation-delay:0.528s" />
<rect class="cell" x="504" y="72" width="11" height="11" rx="2.5" ry="2.5" fill="#161b22" style="animation-delay:0.530s" />
<rect class="cell" x="504" y="86" width="11" height="11" rx="2.5" ry="2.5" fill="#161b22" style="animation-delay:0.532s" />
<rect class="cell" x="504" y="100" width="11" height="11" rx="2.5" ry="2.5" fill="#161b22" style="animation-delay:0.535s" />
<rect class="cell" x="504" y="114" width="11" height="11" rx="2.5" ry="2.5" fill="#161b22" style="animation-delay:0.537s" />
<rect class="cell" x="518" y="30" width="11" height="11" rx="2.5" ry="2.5" fill="#161b22" style="animation-delay:0.539s" />
<rect class="cell" x="518" y="44" width="11" height="11" rx="2.5" ry="2.5" fill="#26a641" style="animation-delay:0.541s" />
<rect class="cell" x="518" y="58" width="11" height="11" rx="2.5" ry="2.5" fill="#161b22" style="animation-delay:0.543s" />
<rect class="cell" x="518" y="72" width="11" height="11" rx="2.5" ry="2.5" fill="#161b22" style="animation-delay:0.546s" />
<rect class="cell" x="518" y="86" width="11" height="11" rx="2.5" ry="2.5" fill="#161b22" style="animation-delay:0.548s" />
<rect class="cell" x="518" y="100" width="11" height="11" rx="2.5" ry="2.5" fill="#161b22" style="animation-delay:0.550s" />
<rect class="cell" x="518" y="114" width="11" height="11" rx="2.5" ry="2.5" fill="#161b22" style="animation-delay:0.552s" />
<rect class="cell" x="532" y="30" width="11" height="11" rx="2.5" ry="2.5" fill="#161b22" style="animation-delay:0.554s" />
<rect class="cell" x="532" y="44" width="11" height="11" rx="2.5" ry="2.5" fill="#161b22" style="animation-delay:0.557s" />
<rect class="cell" x="532" y="58" width="11" height="11" rx="2.5" ry="2.5" fill="#006d32" style="animation-delay:0.559s" />
<rect class="cell" x="532" y="72" width="11" height="11" rx="2.5" ry="2.5" fill="#161b22" style="animation-delay:0.561s" />
<rect class="cell" x="532" y="86" width="11" height="11" rx="2.5" ry="2.5" fill="#0e4429" style="animation-delay:0.563s" />
<rect class="cell" x="532" y="100" width="11" height="11" rx="2.5" ry="2.5" fill="#26a641" style="animation-delay:0.565s" />
<rect class="cell" x="532" y="114" width="11" height="11" rx="2.5" ry="2.5" fill="#161b22" style="animation-delay:0.568s" />
<rect class="cell" x="546" y="30" width="11" height="11" rx="2.5" ry="2.5" fill="#161b22" style="animation-delay:0.570s" />
<rect class="cell" x="546" y="44" width="11" height="11" rx="2.5" ry="2.5" fill="#161b22" style="animation-delay:0.572s" />
<rect class="cell" x="546" y="58" width="11" height="11" rx="2.5" ry="2.5" fill="#161b22" style="animation-delay:0.574s" />
<rect class="cell" x="546" y="72" width="11" height="11" rx="2.5" ry="2.5" fill="#161b22" style="animation-delay:0.576s" />
<rect class="cell" x="546" y="86" width="11" height="11" rx="2.5" ry="2.5" fill="#161b22" style="animation-delay:0.579s" />
<rect class="cell" x="546" y="100" width="11" height="11" rx="2.5" ry="2.5" fill="#161b22" style="animation-delay:0.581s" />
<rect class="cell" x="546" y="114" width="11" height="11" rx="2.5" ry="2.5" fill="#161b22" style="animation-delay:0.583s" />
<rect class="cell" x="560" y="30" width="11" height="11" rx="2.5" ry="2.5" fill="#161b22" style="animation-delay:0.585s" />
<rect class="cell" x="560" y="44" width="11" height="11" rx="2.5" ry="2.5" fill="#161b22" style="animation-delay:0.587s" />
<rect class="cell" x="560" y="58" width="11" height="11" rx="2.5" ry="2.5" fill="#161b22" style="animation-delay:0.590s" />
<rect class="cell" x="560" y="72" width="11" height="11" rx="2.5" ry="2.5" fill="#161b22" style="animation-delay:0.592s" />
<rect class="cell" x="560" y="86" width="11" height="11" rx="2.5" ry="2.5" fill="#161b22" style="animation-delay:0.594s" />
<rect class="cell" x="560" y="100" width="11" height="11" rx="2.5" ry="2.5" fill="#161b22" style="animation-delay:0.596s" />
<rect class="cell" x="560" y="114" width="11" height="11" rx="2.5" ry="2.5" fill="#161b22" style="animation-delay:0.598s" />
<rect class="cell" x="574" y="30" width="11" height="11" rx="2.5" ry="2.5" fill="#161b22" style="animation-delay:0.601s" />
<rect class="cell" x="574" y="44" width="11" height="11" rx="2.5" ry="2.5" fill="#161b22" style="animation-delay:0.603s" />
<rect class="cell" x="574" y="58" width="11" height="11" rx="2.5" ry="2.5" fill="#161b22" style="animation-delay:0.605s" />
<rect class="cell" x="574" y="72" width="11" height="11" rx="2.5" ry="2.5" fill="#161b22" style="animation-delay:0.607s" />
<rect class="cell" x="574" y="86" width="11" height="11" rx="2.5" ry="2.5" fill="#161b22" style="animation-delay:0.609s" />
<rect class="cell" x="574" y="100" width="11" height="11" rx="2.5" ry="2.5" fill="#161b22" style="animation-delay:0.612s" />
<rect class="cell" x="574" y="114" width="11" height="11" rx="2.5" ry="2.5" fill="#161b22" style="animation-delay:0.614s" />
<rect class="cell" x="588" y="30" width="11" height="11" rx="2.5" ry="2.5" fill="#161b22" style="animation-delay:0.616s" />
<rect class="cell" x="588" y="44" width="11" height="11" rx="2.5" ry="2.5" fill="#161b22" style="animation-delay:0.618s" />
<rect class="cell" x="588" y="58" width="11" height="11" rx="2.5" ry="2.5" fill="#161b22" style="animation-delay:0.620s" />
<rect class="cell" x="588" y="72" width="11" height="11" rx="2.5" ry="2.5" fill="#161b22" style="animation-delay:0.623s" />
<rect class="cell" x="588" y="86" width="11" height="11" rx="2.5" ry="2.5" fill="#161b22" style="animation-delay:0.625s" />
<rect class="cell" x="588" y="100" width="11" height="11" rx="2.5" ry="2.5" fill="#161b22" style="animation-delay:0.627s" />
<rect class="cell" x="588" y="114" width="11" height="11" rx="2.5" ry="2.5" fill="#161b22" style="animation-delay:0.629s" />
<rect class="cell" x="602" y="30" width="11" height="11" rx="2.5" ry="2.5" fill="#161b22" style="animation-delay:0.631s" />
<rect class="cell" x="602" y="44" width="11" height="11" rx="2.5" ry="2.5" fill="#161b22" style="animation-delay:0.634s" />
<rect class="cell" x="602" y="58" width="11" height="11" rx="2.5" ry="2.5" fill="#161b22" style="animation-delay:0.636s" />
<rect class="cell" x="602" y="72" width="11" height="11" rx="2.5" ry="2.5" fill="#161b22" style="animation-delay:0.638s" />
<rect class="cell" x="602" y="86" width="11" height="11" rx="2.5" ry="2.5" fill="#161b22" style="animation-delay:0.640s" />
<rect class="cell" x="602" y="100" width="11" height="11" rx="2.5" ry="2.5" fill="#161b22" style="animation-delay:0.642s" />
<rect class="cell" x="602" y="114" width="11" height="11" rx="2.5" ry="2.5" fill="#161b22" style="animation-delay:0.645s" />
<rect class="cell" x="616" y="30" width="11" height="11" rx="2.5" ry="2.5" fill="#161b22" style="animation-delay:0.647s" />
<rect class="cell" x="616" y="44" width="11" height="11" rx="2.5" ry="2.5" fill="#161b22" style="animation-delay:0.649s" />
<rect class="cell" x="616" y="58" width="11" height="11" rx="2.5" ry="2.5" fill="#161b22" style="animation-delay:0.651s" />
<rect class="cell" x="616" y="72" width="11" height="11" rx="2.5" ry="2.5" fill="#161b22" style="animation-delay:0.653s" />
<rect class="cell" x="616" y="86" width="11" height="11" rx="2.5" ry="2.5" fill="#161b22" style="animation-delay:0.656s" />
<rect class="cell" x="616" y="100" width="11" height="11" rx="2.5" ry="2.5" fill="#161b22" style="animation-delay:0.658s" />
<rect class="cell" x="616" y="114" width="11" height="11" rx="2.5" ry="2.5" fill="#161b22" style="animation-delay:0.660s" />
<rect class="cell" x="630" y="30" width="11" height="11" rx="2.5" ry="2.5" fill="#161b22" style="animation-delay:0.662s" />
<rect class="cell" x="630" y="44" width="11" height="11" rx="2.5" ry="2.5" fill="#161b22" style="animation-delay:0.664s" />
<rect class="cell" x="630" y="58" width="11" height="11" rx="2.5" ry="2.5" fill="#161b22" style="animation-delay:0.667s" />
<rect class="cell" x="630" y="72" width="11" height="11" rx="2.5" ry="2.5" fill="#161b22" style="animation-delay:0.669s" />
<rect class="cell" x="630" y="86" width="11" height="11" rx="2.5" ry="2.5" fill="#161b22" style="animation-delay:0.671s" />
<rect class="cell" x="630" y="100" width="11" height="11" rx="2.5" ry="2.5" fill="#161b22" style="animation-delay:0.673s" />
<rect class="cell" x="630" y="114" width="11" height="11" rx="2.5" ry="2.5" fill="#161b22" style="animation-delay:0.675s" />
<rect class="cell" x="644" y="30" width="11" height="11" rx="2.5" ry="2.5" fill="#161b22" style="animation-delay:0.678s" />
<rect class="cell" x="644" y="44" width="11" height="11" rx="2.5" ry="2.5" fill="#161b22" style="animation-delay:0.680s" />
<rect class="cell" x="644" y="58" width="11" height="11" rx="2.5" ry="2.5" fill="#161b22" style="animation-delay:0.682s" />
<rect class="cell" x="644" y="72" width="11" height="11" rx="2.5" ry="2.5" fill="#161b22" style="animation-delay:0.684s" />
<rect class="cell" x="644" y="86" width="11" height="11" rx="2.5" ry="2.5" fill="#161b22" style="animation-delay:0.686s" />
<rect class="cell" x="644" y="100" width="11" height="11" rx="2.5" ry="2.5" fill="#161b22" style="animation-delay:0.689s" />
<rect class="cell" x="644" y="114" width="11" height="11" rx="2.5" ry="2.5" fill="#161b22" style="animation-delay:0.691s" />
<rect class="cell" x="658" y="30" width="11" height="11" rx="2.5" ry="2.5" fill="#0e4429" style="animation-delay:0.693s" />
<rect class="cell" x="658" y="44" width="11" height="11" rx="2.5" ry="2.5" fill="#0e4429" style="animation-delay:0.695s" />
<rect class="cell" x="658" y="58" width="11" height="11" rx="2.5" ry="2.5" fill="#161b22" style="animation-delay:0.697s" />
<rect class="cell" x="658" y="72" width="11" height="11" rx="2.5" ry="2.5" fill="#161b22" style="animation-delay:0.700s" />
<rect class="cell" x="658" y="86" width="11" height="11" rx="2.5" ry="2.5" fill="#161b22" style="animation-delay:0.702s" />
<rect class="cell" x="658" y="100" width="11" height="11" rx="2.5" ry="2.5" fill="#161b22" style="animation-delay:0.704s" />
<rect class="cell" x="658" y="114" width="11" height="11" rx="2.5" ry="2.5" fill="#161b22" style="animation-delay:0.706s" />
<rect class="cell" x="672" y="30" width="11" height="11" rx="2.5" ry="2.5" fill="#161b22" style="animation-delay:0.708s" />
<rect class="cell" x="672" y="44" width="11" height="11" rx="2.5" ry="2.5" fill="#161b22" style="animation-delay:0.711s" />
<rect class="cell" x="672" y="58" width="11" height="11" rx="2.5" ry="2.5" fill="#161b22" style="animation-delay:0.713s" />
<rect class="cell" x="672" y="72" width="11" height="11" rx="2.5" ry="2.5" fill="#161b22" style="animation-delay:0.715s" />
<rect class="cell" x="672" y="86" width="11" height="11" rx="2.5" ry="2.5" fill="#161b22" style="animation-delay:0.717s" />
<rect class="cell" x="672" y="100" width="11" height="11" rx="2.5" ry="2.5" fill="#161b22" style="animation-delay:0.719s" />
<rect class="cell" x="672" y="114" width="11" height="11" rx="2.5" ry="2.5" fill="#161b22" style="animation-delay:0.722s" />
<rect class="cell" x="686" y="30" width="11" height="11" rx="2.5" ry="2.5" fill="#161b22" style="animation-delay:0.724s" />
<rect class="cell" x="686" y="44" width="11" height="11" rx="2.5" ry="2.5" fill="#161b22" style="animation-delay:0.726s" />
<rect class="cell" x="686" y="58" width="11" height="11" rx="2.5" ry="2.5" fill="#161b22" style="animation-delay:0.728s" />
<rect class="cell" x="686" y="72" width="11" height="11" rx="2.5" ry="2.5" fill="#161b22" style="animation-delay:0.730s" />
<rect class="cell" x="686" y="86" width="11" height="11" rx="2.5" ry="2.5" fill="#0e4429" style="animation-delay:0.733s" />
<rect class="cell" x="686" y="100" width="11" height="11" rx="2.5" ry="2.5" fill="#161b22" style="animation-delay:0.735s" />
<rect class="cell" x="686" y="114" width="11" height="11" rx="2.5" ry="2.5" fill="#161b22" style="animation-delay:0.737s" />
<rect class="cell" x="700" y="30" width="11" height="11" rx="2.5" ry="2.5" fill="#161b22" style="animation-delay:0.739s" />
<rect class="cell" x="700" y="44" width="11" height="11" rx="2.5" ry="2.5" fill="#161b22" style="animation-delay:0.741s" />
<rect class="cell" x="700" y="58" width="11" height="11" rx="2.5" ry="2.5" fill="#161b22" style="animation-delay:0.744s" />
<rect class="cell" x="700" y="72" width="11" height="11" rx="2.5" ry="2.5" fill="#0e4429" style="animation-delay:0.746s" />
<rect class="cell" x="700" y="86" width="11" height="11" rx="2.5" ry="2.5" fill="#161b22" style="animation-delay:0.748s" />
<rect class="cell" x="700" y="100" width="11" height="11" rx="2.5" ry="2.5" fill="#161b22" style="animation-delay:0.750s" />
<rect class="cell" x="700" y="114" width="11" height="11" rx="2.5" ry="2.5" fill="#161b22" style="animation-delay:0.752s" />
<rect class="cell" x="714" y="30" width="11" height="11" rx="2.5" ry="2.5" fill="#161b22" style="animation-delay:0.755s" />
<rect class="cell" x="714" y="44" width="11" height="11" rx="2.5" ry="2.5" fill="#161b22" style="animation-delay:0.757s" />
<rect class="cell" x="714" y="58" width="11" height="11" rx="2.5" ry="2.5" fill="#161b22" style="animation-delay:0.759s" />
<rect class="cell" x="714" y="72" width="11" height="11" rx="2.5" ry="2.5" fill="#161b22" style="animation-delay:0.761s" />
<rect class="cell" x="714" y="86" width="11" height="11" rx="2.5" ry="2.5" fill="#161b22" style="animation-delay:0.763s" />
<rect class="cell" x="714" y="100" width="11" height="11" rx="2.5" ry="2.5" fill="#161b22" style="animation-delay:0.766s" />
<rect class="cell" x="714" y="114" width="11" height="11" rx="2.5" ry="2.5" fill="#161b22" style="animation-delay:0.768s" />
<rect class="cell" x="728" y="30" width="11" height="11" rx="2.5" ry="2.5" fill="#161b22" style="animation-delay:0.770s" />
<rect class="cell" x="728" y="44" width="11" height="11" rx="2.5" ry="2.5" fill="#161b22" style="animation-delay:0.772s" />
<rect class="cell" x="728" y="58" width="11" height="11" rx="2.5" ry="2.5" fill="#161b22" style="animation-delay:0.774s" />
<rect class="cell" x="728" y="72" width="11" height="11" rx="2.5" ry="2.5" fill="#161b22" style="animation-delay:0.777s" />
<rect class="cell" x="728" y="86" width="11" height="11" rx="2.5" ry="2.5" fill="#161b22" style="animation-delay:0.779s" />
<rect class="cell" x="728" y="100" width="11" height="11" rx="2.5" ry="2.5" fill="#161b22" style="animation-delay:0.781s" />
<rect class="cell" x="728" y="114" width="11" height="11" rx="2.5" ry="2.5" fill="#161b22" style="animation-delay:0.783s" />
<rect class="cell" x="742" y="30" width="11" height="11" rx="2.5" ry="2.5" fill="#161b22" style="animation-delay:0.785s" />
<rect class="cell" x="742" y="44" width="11" height="11" rx="2.5" ry="2.5" fill="#161b22" style="animation-delay:0.788s" />
<rect class="cell" x="742" y="58" width="11" height="11" rx="2.5" ry="2.5" fill="#161b22" style="animation-delay:0.790s" />
<rect class="cell" x="742" y="72" width="11" height="11" rx="2.5" ry="2.5" fill="#161b22" style="animation-delay:0.792s" />
<rect class="cell" x="742" y="86" width="11" height="11" rx="2.5" ry="2.5" fill="#161b22" style="animation-delay:0.794s" />
<rect class="cell" x="742" y="100" width="11" height="11" rx="2.5" ry="2.5" fill="#161b22" style="animation-delay:0.796s" />
<rect class="cell" x="742" y="114" width="11" height="11" rx="2.5" ry="2.5" fill="#161b22" style="animation-delay:0.799s" />
<rect class="cell" x="756" y="30" width="11" height="11" rx="2.5" ry="2.5" fill="#39d353" style="animation-delay:0.801s" />
  <text x="28" y="157" class="footer">38 contributions in the last year</text>
  <text x="640" y="157" class="legend-label">Less</text>
  <rect x="662" y="147" width="10" height="10" rx="2" fill="#161b22"/><rect x="676" y="147" width="10" height="10" rx="2" fill="#0e4429"/><rect x="690" y="147" width="10" height="10" rx="2" fill="#006d32"/><rect x="704" y="147" width="10" height="10" rx="2" fill="#26a641"/><rect x="718" y="147" width="10" height="10" rx="2" fill="#39d353"/><rect x="732" y="147" width="10" height="10" rx="2" fill="#69f0a0"/>
  <text x="770" y="157" class="legend-label">More</text>
</svg>