<svg xmlns="http://www.w3.org/2000/svg" width="1200" height="100" viewBox="0 0 1200 100">
  <defs>
    <linearGradient id="bg" x1="0%" y1="0%" x2="100%" y2="100%">
      <stop offset="0%" stop-color="#9C27B0"/>
      <stop offset="100%" stop-color="#2196F3"/>
    </linearGradient>
  </defs>
  <path fill="url(#bg)" d="M0,0 L0,20.0 L0,20.0 L20,24.6 L40,28.2 L60,29.9 L80,29.4 L100,26.6 L120,22.4 L140,17.6 L160,13.4 L180,10.6 L200,10.1 L220,11.8 L240,15.4 L260,20.0 L280,24.6 L300,28.2 L320,29.9 L340,29.4 L360,26.6 L380,22.4 L400,17.6 L420,13.4 L440,10.6 L460,10.1 L480,11.8 L500,15.4 L520,20.0 L540,24.6 L560,28.2 L580,29.9 L600,29.4 L620,26.6 L640,22.4 L660,17.6 L680,13.4 L700,10.6 L720,10.1 L740,11.8 L760,15.4 L780,20.0 L800,24.6 L820,28.2 L840,29.9 L860,29.4 L880,26.6 L900,22.4 L920,17.6 L940,13.4 L960,10.6 L980,10.1 L1000,11.8 L1020,15.4 L1040,20.0 L1060,24.6 L1080,28.2 L1100,29.9 L1120,29.4 L1140,26.6 L1160,22.4 L1180,17.6 L1200,13.4 L1200,0 Z"/>
</svg>