<svg xmlns="http://www.w3.org/2000/svg" width="490" height="329" viewBox="0 0 490 329">
  <style>
    .bg { fill: #0d1117; }
    .titlebar { fill: #161b22; }
    .dot { }
    .path { fill: #8b949e; font: 12px 'Fira Code', monospace; }
    .label { font: 700 13px 'Fira Code', monospace; }
    .value { fill: #c9d1d9; font: 13px 'Fira Code', monospace; }
    .row { opacity: 0; animation: fadeSlide 0.5s ease-out forwards; }
    .row.static { opacity: 1; }
    @keyframes fadeSlide {
      0% { opacity: 0; transform: translateX(-8px); }
      100% { opacity: 1; transform: translateX(0); }
    }
  </style>
  <rect class="bg" x="0" y="0" width="490" height="329" rx="8"/>
  <rect class="titlebar" x="0" y="0" width="490" height="34" rx="8"/>
  <rect x="0" y="26" width="490" height="8" fill="#161b22"/>
  <circle cx="20" cy="17" r="6" fill="#ff5f56"/>
  <circle cx="40" cy="17" r="6" fill="#ffbd2e"/>
  <circle cx="60" cy="17" r="6" fill="#27c93f"/>
  <text x="245.0" y="21" text-anchor="middle" class="path">mrpandeyshubham@github ~ %</text>
  <g class="row" style="animation-delay:0.50s"><text x="26" y="68" class="label" fill="#79c0ff">OS</text><text x="134" y="68" class="value">Final-Year CSE Student</text></g><g class="row" style="animation-delay:0.59s"><text x="26" y="89" class="label" fill="#79c0ff">Host</text><text x="134" y="89" class="value">Parul University</text></g><g class="row" style="animation-delay:0.68s"><text x="26" y="110" class="label" fill="#79c0ff">Shell</text><text x="134" y="110" class="value">JavaScript / MERN</text></g><g class="row" style="animation-delay:0.77s"><text x="26" y="131" class="label" fill="#7ee787">Now</text><text x="134" y="131" class="value">Building UniBill (GST ERP)</text></g><g class="row" style="animation-delay:0.86s"><text x="26" y="152" class="label" fill="#7ee787">Prev</text><text x="134" y="152" class="value">CuraBot AI (Healthcare Chatbot)</text></g><g class="row" style="animation-delay:0.95s"><text x="26" y="173" class="label" fill="#d2a8ff">Languages</text><text x="134" y="173" class="value">Java, Python, JS, C, SQL</text></g><g class="row" style="animation-delay:1.04s"><text x="26" y="194" class="label" fill="#ffa657">LeetCode</text><text x="134" y="194" class="value">1782 rating - 223 solved</text></g><g class="row" style="animation-delay:1.13s"><text x="26" y="215" class="label" fill="#ffa657">CodeChef</text><text x="134" y="215" class="value">1337 rating</text></g><g class="row" style="animation-delay:1.22s"><text x="26" y="236" class="label" fill="#ff7b72">Streak</text><text x="134" y="236" class="value">22 current - 50 best</text></g><g class="row" style="animation-delay:1.31s"><text x="26" y="257" class="label" fill="#ff7b72">Contests</text><text x="134" y="257" class="value">33 total (24 LC + 9 CC)</text></g><g class="row" style="animation-delay:1.40s"><text x="26" y="278" class="label" fill="#a5d6ff">Packages</text><text x="134" y="278" class="value">12 public repos</text></g>
  <rect x="26" y="303" width="11" height="11" rx="2" fill="#f14e32"/><rect x="40" y="303" width="11" height="11" rx="2" fill="#f2b807"/><rect x="54" y="303" width="11" height="11" rx="2" fill="#3ddc84"/><rect x="68" y="303" width="11" height="11" rx="2" fill="#3aa6ff"/><rect x="82" y="303" width="11" height="11" rx="2" fill="#a371f7"/><rect x="96" y="303" width="11" height="11" rx="2" fill="#ff7b9c"/><rect x="110" y="303" width="11" height="11" rx="2" fill="#5ee6c9"/><rect x="124" y="303" width="11" height="11" rx="2" fill="#f28b30"/>
</svg>